<svg width="583" height="591" xmlns="http://www.w3.org/2000/svg" xmlns:xlink="http://www.w3.org/1999/xlink" overflow="hidden"><defs><clipPath id="clip0"><rect x="352" y="779" width="583" height="591"/></clipPath></defs><g clip-path="url(#clip0)" transform="translate(-352 -779)"><path d="M608.689 871.705C631.031 802.836 704.973 765.119 773.842 787.462 842.71 809.804 880.427 883.746 858.085 952.614 835.742 1021.48 761.801 1059.2 692.932 1036.86 624.063 1014.51 586.346 940.573 608.689 871.705Z" fill="#FF0000" fill-rule="evenodd" fill-opacity="1"/><path d="M677.725 1197.05C700.068 1128.18 774.009 1090.46 842.878 1112.8 911.747 1135.14 949.464 1209.09 927.121 1277.95 904.779 1346.82 830.837 1384.54 761.969 1362.2 693.1 1339.86 655.383 1265.91 677.725 1197.05Z" fill="#4E8BF7" fill-rule="evenodd" fill-opacity="1"/><path d="M361.807 1094.55C384.15 1025.69 458.091 987.968 526.96 1010.31 595.829 1032.65 633.545 1106.59 611.203 1175.46 588.86 1244.33 514.919 1282.05 446.05 1259.71 377.181 1237.36 339.465 1163.42 361.807 1094.55Z" fill="#FBC00F" fill-rule="evenodd" fill-opacity="1"/></g></svg>
